:SAMPLES-PER-SECOND 30
:FULLY-SPECIFIED
:DEGREES
538
root  -50.2178 33.1763 44.1573 -167.455 58.2749 179.372
RightUpLeg  -27.5991 -16.3796 4.85325
RightLeg  36.7775 -4.33532 -2.83837
RightFoot  -14.0031 0.103012 1.40943
RightToes  -18.7201 -0.0789234 -0.163542
Spine  3.35316 1.53578 3.36913
Spine1  6.73409 3.31982 6.72371
HEad  -65.4052 9.17476 -6.403
LeftShoulder1  -1.94126e-019 -3.10601e-018 -2.51263e-017
LeftArm  1.77278 11.7472 -85.4481
LeftForeArm  25.3498 -24.1054 -3.81183
LeftHand  -0.442971 -1.24749 7.89996
RightShoulder  -4.96962e-017 0 -2.36833e-017
RightArm  -31.3191 -10.6003 65.7965
RightForeArm  64.9758 3.4796 0.574143
RightHand  0.333428 -7.6504 -17.9082
LeftUpLeg  -39.9066 1.47231 2.27542
LeftLeg  31.9425 3.65053 1.95538
LeftFoot  4.77699 -0.0116359 0.440485
LeftToes  -20.7115 2.32378e-006 -5.43956e-008
539
root  -50.3374 33.2878 44.2382 -166.413 60.1251 179.428
RightUpLeg  -28.5247 -14.8352 5.03759
RightLeg  35.8404 -4.21508 -2.66217
RightFoot  -13.016 0.076504 1.23952
RightToes  -19.0268 -0.0784475 -0.165926
Spine  3.18499 1.18797 3.29347
Spine1  6.36095 2.5153 6.61444
HEad  -66.2646 12.3718 -5.82254
LeftShoulder1  -1.94126e-019 -3.10601e-018 -2.51263e-017
LeftArm  -0.549075 12.093 -85.7365
LeftForeArm  24.6072 -21.9334 -3.52682
LeftHand  -0.452751 -0.939826 8.43812
RightShoulder  -4.96962e-017 0 -2.36833e-017
RightArm  -36.2471 -11.3366 63.1527
RightForeArm  64.3293 -0.0119389 -0.000419113
RightHand  1.58599 -13.5527 -22.4497
LeftUpLeg  -39.527 0.327156 3.11725
LeftLeg  29.1916 7.31741 3.47362
LeftFoot  8.78167 -0.086804 1.29198
LeftToes  -28.1189 2.32378e-006 -5.43956e-008
540
root  -50.3077 33.5008 44.2725 -165.417 60.4823 -179.674
RightUpLeg  -27.2383 -13.6279 5.36363
RightLeg  32.8827 -4.83338 -2.70831
RightFoot  -11.6387 0.0647986 1.20738
RightToes  -19.3484 -0.0782762 -0.169743
Spine  3.09915 0.660619 3.48224
Spine1  6.14871 1.3354 7.05774
HEad  -66.7853 14.4783 -4.75702
LeftShoulder1  -1.94126e-019 -3.10601e-018 -2.51263e-017
LeftArm  -1.02831 11.5357 -86.321
LeftForeArm  25.0576 -18.4431 -3.01863
LeftHand  -0.442907 -1.13472 8.02623
RightShoulder  -4.96962e-017 0 -2.36833e-017
RightArm  -39.7498 -13.5503 61.0518
RightForeArm  61.7468 0.33202 0.0834681
RightHand  2.1076 -15.8672 -23.1026
LeftUpLeg  -38.8842 -2.31088 4.76937
LeftLeg  27.8079 9.86552 4.38394
LeftFoot  9.98152 -0.151159 1.89238
LeftToes  -25.3467 2.32378e-006 -5.43956e-008
541
root  -50.242 33.7038 44.2753 -165.014 61.284 -179.598
RightUpLeg  -26.1762 -11.5412 5.12658
RightLeg  30.3452 -5.88411 -2.95567
RightFoot  -10.4063 0.0628207 1.2672
RightToes  -19.6644 -0.0795959 -0.174119
Spine  2.88965 0.433329 3.35973
Spine1  5.70039 0.77331 6.91896
HEad  -66.4942 15.9897 -3.52112
LeftShoulder1  -1.94126e-019 -3.10601e-018 -2.51263e-017
LeftArm  -1.49662 11.0873 -86.5745
LeftForeArm  27.7359 -16.3738 -2.71108
LeftHand  -0.410116 -1.53383 7.04368
RightShoulder  -4.96962e-017 0 -2.36833e-017
RightArm  -43.5045 -15.3292 59.4834
RightForeArm  62.5008 0.202389 0.0354276
RightHand  1.3356 -13.1045 -20.1799
LeftUpLeg  -37.9797 -2.57947 5.02021
LeftLeg  26.0704 11.2658 4.59723
LeftFoot  10.8634 -0.20303 2.29652
LeftToes  -25.7055 2.32378e-006 -5.43956e-008
542
root  -50.0254 33.8819 44.2042 -164.766 61.8024 -179.142
RightUpLeg  -24.1862 -10.6725 5.12791
RightLeg  27.417 -6.31235 -2.77359
RightFoot  -9.27698 0.0484678 1.1763
RightToes  -20.419 -0.0838068 -0.180183
Spine  2.64257 0.123643 3.32947
Spine1  5.17928 0.0717255 6.92904
HEad  -65.3584 17.485 -2.7737
LeftShoulder1  -1.94126e-019 -3.10601e-018 -2.51263e-017
LeftArm  -1.90002 11.6224 -86.6899
LeftForeArm  29.1509 -16.2428 -2.66403
LeftHand  -0.38797 -1.72367 6.5082
RightShoulder  -4.96962e-017 0 -2.36833e-017
RightArm  -41.7518 -17.5572 58.472
RightForeArm  60.2567 1.87043 0.304815
RightHand  0.378607 -8.59607 -14.5426
LeftUpLeg  -35.9125 -2.33758 5.3217
LeftLeg  23.4244 11.5715 4.11426
LeftFoot  10.7342 -0.198122 2.27014
LeftToes  -26.0898 2.32378e-006 -5.43956e-008
543
root  -49.7549 34.04 44.0622 -165.075 62.7785 -179.161
RightUpLeg  -21.9566 -10.0269 4.78178
RightLeg  24.4616 -6.19094 -2.34685
RightFoot  -8.23673 0.0311096 1.00961
RightToes  -21.7016 -0.0911463 -0.190361
Spine  2.37049 -0.0076871 3.15727
Spine1  4.63212 -0.22634 6.64042
HEad  -63.9034 18.6374 -2.68759
LeftShoulder1  -1.94126e-019 -3.10601e-018 -2.51263e-017
LeftArm  -1.94915 13.09 -86.4581
LeftForeArm  27.9887 -18.3078 -2.93123
LeftHand  -0.347237 -1.60969 5.92813
RightShoulder  -4.96962e-017 0 -2.36833e-017
RightArm  -34.1716 -19.961 58.1078
RightForeArm  54.2568 4.92418 0.840164
RightHand  -0.0418173 -5.12415 -10.003
LeftUpLeg  -33.9954 -1.03176 4.84292
LeftLeg  21.5841 11.2448 3.60136
LeftFoot  11.1852 -0.206613 2.27132
LeftToes  -26.9549 2.32378e-006 -5.43956e-008
544
root  -49.441 34.149 43.916 -165.053 63.5181 -178.812
RightUpLeg  -19.9919 -9.79245 4.79203
RightLeg  22.1724 -6.17158 -2.06098
RightFoot  -7.51148 0.022338 0.917704
RightToes  -22.2424 -0.0943089 -0.194603
Spine  1.9753 -0.0970519 3.04663
Spine1  3.84401 -0.408697 6.4589
HEad  -62.4207 19.3668 -2.9698
LeftShoulder1  -1.94126e-019 -3.10601e-018 -2.51263e-017
LeftArm  -1.77593 15.0169 -86.2318
LeftForeArm  26.1889 -21.2145 -3.33208
LeftHand  -0.399369 -1.4057 6.98232
RightShoulder  -4.96962e-017 0 -2.36833e-017
RightArm  -28.5523 -22.4973 58.1109
RightForeArm  52.4054 8.1435 1.38857
RightHand  -0.13887 -3.71361 -8.62851
LeftUpLeg  -32.7393 -0.152409 4.79191
LeftLeg  21.1365 11.2481 3.50665
LeftFoot  10.2637 -0.173185 2.08976
LeftToes  -25.1156 2.32378e-006 -5.43956e-008
545
root  -49.1036 34.2085 43.7567 -165.312 64.0948 -178.645
RightUpLeg  -17.9148 -8.7303 4.45949
RightLeg  20.0464 -6.42932 -1.88402
RightFoot  -7.05862 0.0201937 0.906838
RightToes  -22.4844 -0.0954549 -0.196491
Spine  1.65935 -0.174351 2.88471
Spine1  3.21934 -0.544838 6.17133
HEad  -61.7583 19.6958 -3.35032
LeftShoulder1  -1.94126e-019 -3.10601e-018 -2.51263e-017
LeftArm  -1.68393 16.6642 -85.9983
LeftForeArm  26.1768 -24.1617 -3.76615
LeftHand  -0.433678 -1.10645 7.89366
RightShoulder  -4.96962e-017 0 -2.36833e-017
RightArm  -23.2121 -24.227 58.6529
RightForeArm  50.0583 10.7044 1.56732
RightHand  -0.135917 -3.90208 -9.47343
LeftUpLeg  -31.9146 0.961605 4.52759
LeftLeg  21.7021 10.5397 3.40224
LeftFoot  9.77858 -0.147481 1.88549
LeftToes  -25.8191 2.32378e-006 -5.43956e-008
546
root  -48.7696 34.2186 43.5791 -165.511 64.2573 -178.249
RightUpLeg  -16.0997 -8.47969 4.3835
RightLeg  18.7739 -6.59297 -1.77351
RightFoot  -6.89233 0.0181199 0.91686
RightToes  -22.7557 -0.0973474 -0.198601
Spine  1.43157 -0.306751 2.82503
Spine1  2.76478 -0.777297 6.06714
HEad  -61.6597 19.971 -3.90684
LeftShoulder1  -1.94126e-019 -3.10601e-018 -2.51263e-017
LeftArm  -1.83414 17.721 -86.0051
LeftForeArm  27.7449 -26.1692 -4.0898
LeftHand  -0.487968 -0.924912 9.10507
RightShoulder  -4.96962e-017 0 -2.36833e-017
RightArm  -21.6624 -24.9339 59.631
RightForeArm  48.4555 12.1397 1.53575
RightHand  -0.119102 -4.2229 -10.3377
LeftUpLeg  -31.4857 0.920249 4.71383
LeftLeg  23.3006 10.6268 3.75751
LeftFoot  8.66337 -0.117927 1.71831
LeftToes  -25.6951 2.32378e-006 -5.43956e-008
547
root  -48.4256 34.194 43.3875 -165.365 64.4758 -177.461
RightUpLeg  -14.7012 -8.80923 4.59405
RightLeg  18.2916 -6.64643 -1.7279
RightFoot  -6.77005 0.017198 0.915205
RightToes  -23.7765 -0.103496 -0.206471
Spine  1.27906 -0.295493 2.87619
Spine1  2.45539 -0.720885 6.16962
HEad  -61.616 20.1192 -4.31618
LeftShoulder1  -1.94126e-019 -3.10601e-018 -2.51263e-017
LeftArm  -2.20855 18.0416 -86.3299
LeftForeArm  27.8402 -26.9152 -4.24634
LeftHand  -0.525012 -1.25646 9.32394
RightShoulder  -4.96962e-017 0 -2.36833e-017
RightArm  -22.873 -24.9761 60.9013
RightForeArm  47.1189 12.8246 1.50574
RightHand  -0.121985 -4.18022 -10.2602
LeftUpLeg  -31.2182 0.62323 5.11765
LeftLeg  25.3169 10.9913 4.32094
LeftFoot  7.44313 -0.0911246 1.56242
LeftToes  -25.4411 2.32378e-006 -5.43956e-008
548
root  -48.1091 34.1456 43.1534 -165.217 64.8615 -177.119
RightUpLeg  -13.8266 -9.09748 4.42584
RightLeg  18.1085 -6.0272 -1.54725
RightFoot  -7.12984 0.0186558 0.886278
RightToes  -24.4893 -0.107872 -0.211901
Spine  1.04059 -0.154128 2.88148
Spine1  1.98734 -0.382625 6.16435
HEad  -61.1869 20.4031 -4.26885
LeftShoulder1  -1.94126e-019 -3.10601e-018 -2.51263e-017
LeftArm  -2.52875 18.0571 -86.7956
LeftForeArm  27.7574 -27.1212 -4.29699
LeftHand  -0.506749 -1.31398 8.9322
RightShoulder  -4.96962e-017 0 -2.36833e-017
RightArm  -24.273 -24.5773 62.3991
RightForeArm  46.0046 13.2178 1.49356
RightHand  -0.102271 -4.35071 -9.61346
LeftUpLeg  -31.3416 0.242466 5.27288
LeftLeg  27.397 11.6049 5.04594
LeftFoot  5.79366 -0.0588576 1.32465
LeftToes  -22.565 2.32378e-006 -5.43956e-008
549
root  -47.7767 34.0936 42.8876 -164.826 65.6598 -176.611
RightUpLeg  -13.1696 -9.02544 4.19712
RightLeg  18.212 -5.35543 -1.38596
RightFoot  -7.50699 0.0214332 0.847161
RightToes  -25.3204 -0.11306 -0.218162
Spine  0.81242 0.123054 2.87381
Spine1  1.55194 0.243892 6.12874
HEad  -60.5172 20.8586 -4.12149
LeftShoulder1  -1.94126e-019 -3.10601e-018 -2.51263e-017
LeftArm  -2.70035 18.0657 -87.2576
LeftForeArm  28.0579 -27.1775 -4.29589
LeftHand  -0.490085 -1.20192 8.78156
RightShoulder  -4.96962e-017 0 -2.36833e-017
RightArm  -25.1505 -23.6176 64.0459
RightForeArm  46.1878 13.2721 1.48638
RightHand  -0.106576 -4.26592 -9.34771
LeftUpLeg  -31.3721 1.00331 5.14339
LeftLeg  29.2575 11.4152 5.40673
LeftFoot  5.00211 -0.0439656 1.16808
LeftToes  -24.3072 2.32378e-006 -5.43956e-008
550
root  -47.4342 34.0483 42.594 -164.685 66.5714 -176.312
RightUpLeg  -12.4351 -8.50101 3.79283
RightLeg  18.3471 -5.03297 -1.31558
RightFoot  -7.85959 0.0218635 0.852171
RightToes  -25.8002 -0.116096 -0.221743
Spine  0.679612 0.425944 2.81963
Spine1  1.31159 0.926513 6.01465
HEad  -60.2369 21.4602 -4.07499
LeftShoulder1  -1.94126e-019 -3.10601e-018 -2.51263e-017
LeftArm  -2.63868 18.2703 -87.4805
LeftForeArm  28.355 -27.6229 -4.37993
LeftHand  -0.488758 -1.0093 9.00613
RightShoulder  -4.96962e-017 0 -2.36833e-017
RightArm  -24.383 -22.2687 65.7528
RightForeArm  46.3372 13.5831 1.45913
RightHand  -0.117444 -4.10697 -9.22345
LeftUpLeg  -31.2483 2.24348 4.81879
LeftLeg  31.0782 11.1142 5.70054
LeftFoot  3.07913 -0.0137539 0.759085
LeftToes  -21.6382 2.32378e-006 -5.43956e-008
